<?xml version="1.0" encoding="utf-8"?>
<!-- Generator: Adobe Illustrator 15.1.0, SVG Export Plug-In . SVG Version: 6.00 Build 0)  -->
<!DOCTYPE svg PUBLIC "-//W3C//DTD SVG 1.1//EN" "http://www.w3.org/Graphics/SVG/1.1/DTD/svg11.dtd">
<svg version="1.1" id="Layer_1" xmlns="http://www.w3.org/2000/svg" xmlns:xlink="http://www.w3.org/1999/xlink" x="0px" y="0px"
	 width="700px" height="500px" viewBox="0 0 700 500" enable-background="new 0 0 700 500" xml:space="preserve">
<g id="svg2463" sodipodi:docbase="/home/brunurb/Desktop/Retrojoystick 002" inkscape:export-ydpi="71.981049" xmlns:sodipodi="http://sodipodi.sourceforge.net/DTD/sodipodi-0.dtd" inkscape:export-filename="/home/brunurb/Desktop/RetroJoystick002.png" xmlns:cc="http://web.resource.org/cc/" sodipodi:docname="RetroJoystick002.svg" inkscape:output_extension="org.inkscape.output.svg.inkscape" xmlns:dc="http://purl.org/dc/elements/1.1/" xmlns:svg="http://www.w3.org/2000/svg" inkscape:version="0.45.1" xmlns:rdf="http://www.w3.org/1999/02/22-rdf-syntax-ns#" inkscape:export-xdpi="71.981049" sodipodi:version="0.32" xmlns:inkscape="http://www.inkscape.org/namespaces/inkscape">
	
		<sodipodi:namedview  id="base" guidetolerance="10" inkscape:window-width="1280" pagecolor="#ffffff" inkscape:window-height="951" bordercolor="#666666" inkscape:zoom="0.35" inkscape:window-x="0" inkscape:document-units="px" inkscape:cx="375" inkscape:window-y="24" inkscape:pageopacity="0.0" borderopacity="1.0" objecttolerance="10" inkscape:cy="520" inkscape:pageshadow="2" gridtolerance="10000" inkscape:current-layer="layer1">
		</sodipodi:namedview>
	<g id="layer1" transform="translate(-22.779422,-113.5204)" inkscape:label="Layer 1" inkscape:groupmode="layer">
		<g id="g2473" transform="matrix(1.487792,0,0,1.487792,-78.780096,-458.22)">
			<path id="path2475" fill="#123035" d="M269.353,547.602l135.438-37.281c7.909-2.755,15.639-1.189,23.186,4.699l65.881,66.595
				c5.087,4.479,6.415,12.207,3.984,23.186l-9.398,30.437l-136.868,53.216c-9.844,3.542-19.514,0.887-29.008-7.967l-48.517-77.116
				l-11.235-41.264C262.466,555.04,264.645,550.204,269.353,547.602z"/>
		</g>
		<g id="g2477" transform="matrix(1.487792,0,0,1.487792,-78.780096,-458.22)">
			<path id="path2479" fill="#FFFFFF" d="M262.816,562.107c-0.236-4.761,0.676-8.508,2.734-11.242
				c30.28,45.538,48.16,72.424,55.723,83.79l-0.61,42.803l-46.611-74.086L262.816,562.107z"/>
		</g>
		<g id="g2481" transform="matrix(1.487792,0,0,1.487792,-78.780096,-458.22)">
			<path id="path2483" fill="#FFFFFF" d="M310.309,564.919c0-21.461,32.54-38.859,72.679-38.859c40.142,0,72.68,17.398,72.68,38.859
				c0,21.46-32.538,38.857-72.68,38.857C342.848,603.776,310.309,586.381,310.309,564.919z"/>
		</g>
		<g id="g2489" transform="matrix(1.487792,0,0,1.487792,-78.780096,-458.22)">
			<path id="path2491" fill="#123035" d="M311.045,569.308c0-21.461,32.54-38.859,72.68-38.859
				c40.139,0,72.679,17.397,72.679,38.859c0,21.46-32.54,38.857-72.679,38.857C343.585,608.166,311.045,590.769,311.045,569.308z"/>
		</g>
		<g id="g2497" transform="matrix(1.487792,0,0,1.487792,-78.780096,-458.22)">
			<path id="path2499" fill="#8F4C68" d="M323.283,610.623c0-6.601,8.117-11.949,18.131-11.949c10.012,0,18.131,5.349,18.131,11.949
				c0,6.599-8.117,11.951-18.131,11.951C331.4,622.574,323.283,617.223,323.283,610.623z"/>
		</g>
		<g id="g2505" transform="matrix(1.487792,0,0,1.487792,-78.780096,-458.22)">
			<path id="path2507" fill="#FFFFFF" d="M359.522,610.035c0.014,0.196,0.022,0.39,0.022,0.587c0,6.599-8.117,11.951-18.131,11.951
				c-9.938,0-18.043-5.273-18.129-11.807v9.348c10.734,10.834,30.031,11.138,37.591-1.217L359.522,610.035z"/>
		</g>
		<g id="g2509" transform="matrix(1.487792,0,0,1.487792,-78.780096,-458.22)">
			<path id="path2511" fill="#FFFFFF" d="M323.477,564.552c0-17.714,27.554-32.072,61.541-32.072
				c33.99,0,61.541,14.358,61.541,32.072c0,17.713-27.552,32.07-61.541,32.07C351.029,596.62,323.477,582.264,323.477,564.552z"/>
		</g>
		<g id="g2517" transform="matrix(1.487792,0,0,1.487792,-78.780096,-458.22)">
			<path id="path2519" fill="#123035" d="M324.619,567.317c0-16.816,27.025-30.447,60.362-30.447
				c33.336,0,60.36,13.631,60.36,30.447c0,16.815-27.025,30.447-60.36,30.447C351.645,597.764,324.619,584.132,324.619,567.317z"/>
		</g>
		<g id="g2525" transform="matrix(1.487792,0,0,1.487792,-78.780096,-458.22)">
			<path id="path2527" fill="#FFFFFF" d="M328.196,570.894c0-15.736,24.969-28.492,55.768-28.492
				c30.8,0,55.769,12.755,55.769,28.492s-24.969,28.494-55.769,28.494C353.165,599.388,328.196,586.63,328.196,570.894z"/>
		</g>
		<g id="g2533" transform="matrix(1.487792,0,0,1.487792,-78.780096,-458.22)">
			<path id="path2535" fill="#123035" d="M333.398,567.519c0-14.096,22.746-25.523,50.808-25.523
				c28.06,0,50.809,11.427,50.809,25.523c0,14.098-22.748,25.524-50.809,25.524C356.145,593.044,333.398,581.618,333.398,567.519z"
				/>
		</g>
		<g id="g2541" transform="matrix(1.487792,0,0,1.487792,-78.780096,-458.22)">
			<path id="path2543" fill="#FFFFFF" d="M332.991,562.356c0-13.851,22.475-25.08,50.2-25.08c27.725,0,50.2,11.229,50.2,25.08
				c0,13.852-22.475,25.08-50.2,25.08C355.466,587.436,332.991,576.208,332.991,562.356z"/>
		</g>
		<g id="g2549" transform="matrix(1.487792,0,0,1.487792,-78.780096,-458.22)">
			<path id="path2551" fill="#123035" d="M337.788,560.973c0-13.312,21.038-24.104,46.99-24.104
				c25.952,0,46.989,10.792,46.989,24.104c0,13.311-21.037,24.105-46.989,24.105C358.826,585.078,337.788,574.285,337.788,560.973z"
				/>
		</g>
		<g id="g2557" transform="matrix(1.487792,0,0,1.487792,-78.780096,-458.22)">
			<path id="path2559" fill="#FFFFFF" d="M341.365,555.201c0-14.523,19.438-26.299,43.413-26.299
				c23.976,0,43.412,11.774,43.412,26.299c0,14.526-19.436,26.299-43.412,26.299C360.802,581.5,341.365,569.727,341.365,555.201z"/>
		</g>
		<g id="g2565" transform="matrix(1.487792,0,0,1.487792,-78.780096,-458.22)">
			<path id="path2567" fill="#123035" d="M343.394,555.365c0-10.663,18.181-19.308,40.608-19.308
				c22.426,0,40.608,8.645,40.608,19.308c0,10.664-18.182,19.31-40.608,19.31C361.576,574.676,343.394,566.029,343.394,555.365z"/>
		</g>
		<g id="g2573" transform="matrix(1.487792,0,0,1.487792,-78.780096,-458.22)">
			<path id="path2575" fill="#FFFFFF" d="M350.55,552.765c0-9.675,15.067-17.519,33.655-17.519c18.587,0,33.657,7.844,33.657,17.519
				c0,9.676-15.068,17.52-33.657,17.52C365.618,570.285,350.55,562.441,350.55,552.765z"/>
		</g>
		<g id="g2581" transform="matrix(1.487792,0,0,1.487792,-78.780096,-458.22)">
			<path id="path2583" fill="#123035" d="M354.939,551.421c0-7.588,13.195-13.739,29.47-13.739c16.275,0,29.47,6.15,29.47,13.739
				c0,7.586-13.195,13.739-29.47,13.739C368.134,565.16,354.939,559.007,354.939,551.421z"/>
		</g>
		<g id="g2589" transform="matrix(1.487792,0,0,1.487792,-78.780096,-458.22)">
			<path id="path2591" fill="#FFFFFF" d="M361.283,547.602c0-5.703,10.61-10.326,23.697-10.326c13.088,0,23.697,4.622,23.697,10.326
				c0,5.703-10.608,10.327-23.697,10.327C371.893,557.928,361.283,553.305,361.283,547.602z"/>
		</g>
		<g id="g2597" transform="matrix(1.487792,0,0,1.487792,-78.780096,-458.22)">
			<path id="path2599" fill="#123035" d="M365.266,545.002c0-3.861,8.206-6.991,18.33-6.991c10.125,0,18.331,3.13,18.331,6.991
				c0,3.86-8.207,6.99-18.331,6.99S365.266,548.861,365.266,545.002z"/>
		</g>
		<g id="g2605" transform="matrix(1.487792,0,0,1.487792,-78.780096,-458.22)">
			<path id="path2607" fill="#123035" d="M323.283,613.112c0-0.419,0.034-0.836,0.096-1.245c0.945,6.014,8.658,10.706,18.035,10.706
				c9.376,0,17.088-4.69,18.033-10.706c0.064,0.408,0.096,0.824,0.096,1.245c0,6.599-8.117,11.951-18.131,11.951
				C331.4,625.063,323.283,619.712,323.283,613.112z"/>
		</g>
		<g id="g2609" transform="matrix(1.487792,0,0,1.487792,-78.780096,-458.22)">
			<path id="path2611" fill="#FFFFFF" d="M495.072,582.827c3.542,4.005,4.702,10.076,3.476,18.205l-155.965,48.186
				c-14.958,3.434-25.851-0.306-32.68-11.214l-47.122-77.094c-0.035-4.062,0.829-7.329,2.591-9.801l55.264,83.317
				c4.457,3.614,13.617,4.425,27.478,2.435L486.8,593.044C491.442,590.02,494.201,586.614,495.072,582.827z"/>
		</g>
		<g id="g2613" transform="matrix(1.487792,0,0,1.487792,-78.780096,-458.22)">
			<path id="path2615" fill="#123035" d="M370.373,423.4c0.82-1.041,1.932-1.934,3.279-2.69l-0.005,124.937
				c-1.455-0.776-2.582-1.697-3.274-2.745V423.4z"/>
		</g>
		<g id="g2617" transform="matrix(1.487792,0,0,1.487792,-78.780096,-458.22)">
			<path id="path2619" fill="#FFFFFF" d="M379.602,418.601c1.285-0.263,2.622-0.443,4.008-0.543
				c0,60.71-0.003,104.514-0.005,130.114c-1.381-0.097-2.716-0.272-3.983-0.521c-2.279-0.448-4.328-1.128-5.974-2.006l0.005-124.937
				C375.348,419.76,377.388,419.058,379.602,418.601z"/>
		</g>
		<g id="g2621" transform="matrix(1.487792,0,0,1.487792,-78.780096,-458.22)">
			<path id="path2623" fill="#123035" d="M392.133,547.698c-2.787,0.53-5.726,0.671-8.529,0.476
				c0.003-25.6,0.005-69.404,0.005-130.114c2.836-0.202,5.767-0.044,8.504,0.471c4.194,0.794,7.911,2.414,10.127,4.869v119.502
				C399.746,545.395,396.097,546.941,392.133,547.698z"/>
		</g>
		<g id="g2625" transform="matrix(1.487792,0,0,1.487792,-78.780096,-458.22)">
			<path id="path2627" fill="#123035" d="M370.373,423.4c5.684-7.217,25.327-7.252,31.867,0v5.399
				c-5.46,1.175-11.923,1.854-18.847,1.854c-4.595,0-8.99-0.299-13.02-0.844V423.4L370.373,423.4z"/>
		</g>
		<g id="g2629" transform="matrix(1.487792,0,0,1.487792,-78.780096,-458.22)">
			<path id="path2631" fill="#FFFFFF" d="M383.393,428.163c3.065,0,6.037-0.133,8.874-0.383v2.489
				c-2.837,0.25-5.809,0.383-8.874,0.383c-4.595,0-8.99-0.299-13.02-0.844v-4.481C374.403,425.87,378.797,428.163,383.393,428.163z"
				/>
		</g>
	</g>
</g>
</svg>
