<?xml version="1.0" encoding="utf-8"?>
<!-- Generator: Adobe Illustrator 15.1.0, SVG Export Plug-In . SVG Version: 6.00 Build 0)  -->
<!DOCTYPE svg PUBLIC "-//W3C//DTD SVG 1.1//EN" "http://www.w3.org/Graphics/SVG/1.1/DTD/svg11.dtd">
<svg version="1.1" id="Layer_3" xmlns="http://www.w3.org/2000/svg" xmlns:xlink="http://www.w3.org/1999/xlink" x="0px" y="0px"
	 width="700px" height="500px" viewBox="0 0 700 500" enable-background="new 0 0 700 500" xml:space="preserve">
<g>
	<path fill="#123035" d="M103.941,58.159c0,0-1.174,124.83-1.078,135.937c0.096,11.109,2.193,15.781,14.275,15.895
		s139.125,1.299,139.125,1.299c0.324,0.004,0.583,0.268,0.58,0.59l-0.371,39.75c-0.003,0.324-0.267,0.582-0.591,0.58
		c0,0-172.055-1.238-181.795-1.699c-9.74-0.457-12.545-5.941-12.475-14.709c0.068-8.768,1.41-177.965,1.41-177.965
		c0.002-0.324,0.266-0.583,0.588-0.58l39.752,0.314C103.683,57.572,103.941,57.836,103.941,58.159z"/>
	<path fill="#FFFFFF" d="M173.435,228.545c-0.265-0.004-0.481,0.258-0.484,0.58l-0.03,3.215c-0.003,0.322,0.208,0.586,0.473,0.59
		l30.608,0.285c0.265,0.002,0.481-0.258,0.485-0.58l0.03-3.217c0.003-0.32-0.208-0.586-0.474-0.588L173.435,228.545z"/>
	<path fill="#FFFFFF" d="M215.958,228.941c-0.265-0.004-0.481,0.26-0.483,0.58l-0.031,3.217c-0.003,0.32,0.208,0.584,0.473,0.588
		l30.608,0.285c0.266,0.002,0.481-0.258,0.485-0.578l0.03-3.217c0.003-0.322-0.208-0.588-0.474-0.59L215.958,228.941z"/>
	<path fill="#FFFFFF" d="M130.91,228.146c-0.264-0.002-0.48,0.258-0.484,0.582l-0.029,3.215c-0.004,0.322,0.207,0.586,0.473,0.588
		l30.609,0.287c0.264,0.002,0.479-0.258,0.482-0.582l0.029-3.215c0.004-0.322-0.207-0.586-0.473-0.588L130.91,228.146z"/>
	<path fill="#FFFFFF" d="M88.386,227.75c-0.266-0.002-0.482,0.256-0.484,0.582l-0.031,3.213c-0.002,0.324,0.209,0.588,0.475,0.59
		l30.607,0.287c0.264,0.002,0.48-0.26,0.482-0.582l0.031-3.215c0.002-0.322-0.209-0.586-0.473-0.588L88.386,227.75z"/>
	<path fill="#FFFFFF" d="M82.394,176.397c-0.322-0.002-0.586,0.256-0.59,0.579l-0.328,35.219c-0.004,0.322,0.256,0.586,0.578,0.59
		l3.215,0.029c0.322,0.004,0.588-0.258,0.59-0.578l0.328-35.219c0.004-0.322-0.254-0.588-0.578-0.59L82.394,176.397z"/>
	<path fill="#FFFFFF" d="M82.884,123.786c-0.32-0.003-0.586,0.256-0.588,0.579l-0.33,35.22c-0.002,0.325,0.258,0.589,0.58,0.593
		l3.215,0.028c0.322,0.004,0.586-0.256,0.59-0.577l0.328-35.223c0.004-0.323-0.256-0.588-0.578-0.591L82.884,123.786z"/>
	<path fill="#FFFFFF" d="M83.347,74.247c-0.322-0.003-0.586,0.256-0.59,0.579l-0.328,35.219c-0.004,0.322,0.256,0.586,0.58,0.589
		l3.215,0.03c0.322,0.003,0.586-0.256,0.59-0.578l0.328-35.219c0.004-0.322-0.256-0.587-0.58-0.59L83.347,74.247z"/>
</g>
<g>
	<path fill="#123035" d="M250.171,328.383c0,0.324-0.262,0.584-0.584,0.584H210.13c-0.324,0-0.585-0.26-0.585-0.584V135.1
		c0-0.323,0.261-0.584,0.585-0.584h39.457c0.323,0,0.584,0.261,0.584,0.584V328.383z"/>
	<path fill="#FFFFFF" d="M232.05,183.257c0,0.265-0.262,0.479-0.584,0.479h-3.215c-0.323,0-0.584-0.215-0.584-0.479v-30.608
		c0-0.265,0.262-0.479,0.584-0.479h3.215c0.323,0,0.584,0.214,0.584,0.479V183.257z"/>
	<path fill="#FFFFFF" d="M232.05,225.783c0,0.265-0.262,0.479-0.584,0.479h-3.215c-0.323,0-0.584-0.214-0.584-0.479v-30.609
		c0-0.264,0.262-0.479,0.584-0.479h3.215c0.323,0,0.584,0.215,0.584,0.479V225.783z"/>
	<path fill="#FFFFFF" d="M232.05,268.309c0,0.265-0.262,0.479-0.584,0.479h-3.215c-0.323,0-0.584-0.215-0.584-0.479V237.7
		c0-0.265,0.262-0.478,0.584-0.478h3.215c0.323,0,0.584,0.213,0.584,0.478V268.309z"/>
	<path fill="#FFFFFF" d="M232.05,310.834c0,0.266-0.262,0.479-0.584,0.479h-3.215c-0.323,0-0.584-0.213-0.584-0.479v-30.607
		c0-0.266,0.262-0.48,0.584-0.48h3.215c0.323,0,0.584,0.215,0.584,0.48V310.834z"/>
</g>
<g>
	<path fill="#123035" d="M250.171,153.148c0,0.324-0.262,0.584-0.585,0.584H210.13c-0.324,0-0.585-0.26-0.585-0.584V-40.135
		c0-0.323,0.261-0.584,0.585-0.584h39.456c0.323,0,0.585,0.261,0.585,0.584V153.148z"/>
	<path fill="#FFFFFF" d="M232.05,8.022c0,0.265-0.262,0.479-0.585,0.479h-3.215c-0.322,0-0.584-0.215-0.584-0.479v-30.608
		c0-0.265,0.262-0.479,0.584-0.479h3.215c0.323,0,0.585,0.214,0.585,0.479V8.022z"/>
	<path fill="#FFFFFF" d="M232.05,50.549c0,0.265-0.262,0.479-0.585,0.479h-3.215c-0.322,0-0.584-0.214-0.584-0.479V19.939
		c0-0.264,0.262-0.479,0.584-0.479h3.215c0.323,0,0.585,0.215,0.585,0.479V50.549z"/>
	<path fill="#FFFFFF" d="M232.05,93.074c0,0.265-0.262,0.479-0.585,0.479h-3.215c-0.322,0-0.584-0.215-0.584-0.479V62.466
		c0-0.265,0.262-0.478,0.584-0.478h3.215c0.323,0,0.585,0.213,0.585,0.478V93.074z"/>
	<path fill="#FFFFFF" d="M232.05,135.6c0,0.266-0.262,0.479-0.585,0.479h-3.215c-0.322,0-0.584-0.213-0.584-0.479v-30.607
		c0-0.266,0.262-0.48,0.584-0.48h3.215c0.323,0,0.585,0.215,0.585,0.48V135.6z"/>
</g>
<g>
	<g>
		<path fill="#123035" d="M556.189,426.762c0,0.324-0.262,0.584-0.585,0.584h-39.456c-0.323,0-0.585-0.26-0.585-0.584V233.479
			c0-0.323,0.262-0.584,0.585-0.584h39.456c0.323,0,0.585,0.261,0.585,0.584V426.762z"/>
		<path fill="#FFFFFF" d="M538.068,281.636c0,0.265-0.262,0.479-0.585,0.479h-3.215c-0.322,0-0.584-0.215-0.584-0.479v-30.608
			c0-0.265,0.262-0.479,0.584-0.479h3.215c0.323,0,0.585,0.214,0.585,0.479V281.636z"/>
		<path fill="#FFFFFF" d="M538.068,324.162c0,0.265-0.262,0.479-0.585,0.479h-3.215c-0.322,0-0.584-0.214-0.584-0.479v-30.609
			c0-0.264,0.262-0.479,0.584-0.479h3.215c0.323,0,0.585,0.215,0.585,0.479V324.162z"/>
		<path fill="#FFFFFF" d="M538.068,366.688c0,0.265-0.262,0.479-0.585,0.479h-3.215c-0.322,0-0.584-0.215-0.584-0.479v-30.608
			c0-0.265,0.262-0.478,0.584-0.478h3.215c0.323,0,0.585,0.213,0.585,0.478V366.688z"/>
		<path fill="#FFFFFF" d="M538.068,409.213c0,0.266-0.262,0.479-0.585,0.479h-3.215c-0.322,0-0.584-0.213-0.584-0.479v-30.607
			c0-0.266,0.262-0.48,0.584-0.48h3.215c0.323,0,0.585,0.215,0.585,0.48V409.213z"/>
	</g>
	<g>
		<path fill="#123035" d="M556.189,251.527c0,0.324-0.262,0.584-0.585,0.584h-39.456c-0.323,0-0.585-0.26-0.585-0.584V58.244
			c0-0.323,0.262-0.584,0.585-0.584h39.456c0.323,0,0.585,0.261,0.585,0.584V251.527z"/>
		<path fill="#FFFFFF" d="M538.068,106.401c0,0.265-0.262,0.479-0.585,0.479h-3.215c-0.322,0-0.584-0.215-0.584-0.479V75.793
			c0-0.265,0.262-0.479,0.584-0.479h3.215c0.323,0,0.585,0.214,0.585,0.479V106.401z"/>
		<path fill="#FFFFFF" d="M538.068,148.928c0,0.265-0.262,0.479-0.585,0.479h-3.215c-0.322,0-0.584-0.214-0.584-0.479v-30.609
			c0-0.264,0.262-0.479,0.584-0.479h3.215c0.323,0,0.585,0.215,0.585,0.479V148.928z"/>
		<path fill="#FFFFFF" d="M538.068,191.453c0,0.265-0.262,0.479-0.585,0.479h-3.215c-0.322,0-0.584-0.215-0.584-0.479v-30.608
			c0-0.265,0.262-0.478,0.584-0.478h3.215c0.323,0,0.585,0.213,0.585,0.478V191.453z"/>
		<path fill="#FFFFFF" d="M538.068,233.979c0,0.266-0.262,0.479-0.585,0.479h-3.215c-0.322,0-0.584-0.213-0.584-0.479v-30.607
			c0-0.266,0.262-0.48,0.584-0.48h3.215c0.323,0,0.585,0.215,0.585,0.48V233.979z"/>
	</g>
</g>
<g>
	<path fill="#123035" d="M612.255,211.428c0.324,0,0.584,0.262,0.584,0.585v39.456c0,0.324-0.26,0.586-0.584,0.586H418.971
		c-0.322,0-0.584-0.262-0.584-0.586v-39.456c0-0.323,0.262-0.585,0.584-0.585H612.255z"/>
	<path fill="#FFFFFF" d="M467.128,229.549c0.266,0,0.48,0.262,0.48,0.585v3.215c0,0.322-0.215,0.584-0.48,0.584h-30.607
		c-0.266,0-0.479-0.262-0.479-0.584v-3.215c0-0.323,0.213-0.585,0.479-0.585H467.128z"/>
	<path fill="#FFFFFF" d="M509.655,229.549c0.264,0,0.479,0.262,0.479,0.585v3.215c0,0.322-0.215,0.584-0.479,0.584h-30.609
		c-0.264,0-0.479-0.262-0.479-0.584v-3.215c0-0.323,0.215-0.585,0.479-0.585H509.655z"/>
	<path fill="#FFFFFF" d="M594.706,229.549c0.266,0,0.479,0.262,0.479,0.585v3.215c0,0.322-0.213,0.584-0.479,0.584h-30.607
		c-0.266,0-0.48-0.262-0.48-0.584v-3.215c0-0.323,0.215-0.585,0.48-0.585H594.706z"/>
</g>
<g>
	<path fill="#123035" d="M434.021,211.428c0.324,0,0.584,0.262,0.584,0.585v39.456c0,0.324-0.26,0.586-0.584,0.586H240.737
		c-0.323,0-0.584-0.262-0.584-0.585v-39.457c0-0.323,0.261-0.585,0.584-0.585H434.021z"/>
	<path fill="#FFFFFF" d="M288.894,229.549c0.265,0,0.479,0.262,0.479,0.585v3.215c0,0.322-0.215,0.584-0.479,0.584h-30.608
		c-0.265,0-0.479-0.262-0.479-0.584v-3.215c0-0.323,0.214-0.585,0.479-0.585H288.894z"/>
	<path fill="#FFFFFF" d="M331.42,229.549c0.265,0,0.479,0.262,0.479,0.585v3.215c0,0.322-0.214,0.584-0.479,0.584h-30.609
		c-0.264,0-0.479-0.262-0.479-0.584v-3.215c0-0.323,0.215-0.585,0.479-0.585H331.42z"/>
	<path fill="#FFFFFF" d="M373.945,229.549c0.266,0,0.48,0.262,0.48,0.585v3.215c0,0.322-0.215,0.584-0.48,0.584h-30.607
		c-0.266,0-0.479-0.262-0.479-0.584v-3.215c0-0.323,0.213-0.585,0.479-0.585H373.945z"/>
	<path fill="#FFFFFF" d="M416.471,229.549c0.266,0,0.479,0.262,0.479,0.585v3.215c0,0.322-0.213,0.584-0.479,0.584h-30.607
		c-0.266,0-0.48-0.262-0.48-0.584v-3.215c0-0.323,0.215-0.585,0.48-0.585H416.471z"/>
</g>
<g>
	<path fill="#123035" d="M104.642,423.24c0.324,0,0.584,0.262,0.584,0.586v39.455c0,0.324-0.26,0.586-0.584,0.586H-88.642
		c-0.322,0-0.584-0.262-0.584-0.586v-39.455c0-0.324,0.262-0.586,0.584-0.586H104.642z"/>
	<path fill="#FFFFFF" d="M-40.485,441.361c0.266,0,0.48,0.262,0.48,0.586v3.215c0,0.322-0.215,0.584-0.48,0.584h-30.607
		c-0.266,0-0.479-0.262-0.479-0.584v-3.215c0-0.324,0.213-0.586,0.479-0.586H-40.485z"/>
	<path fill="#FFFFFF" d="M2.042,441.361c0.264,0,0.479,0.262,0.479,0.586v3.215c0,0.322-0.215,0.584-0.479,0.584h-30.609
		c-0.264,0-0.479-0.262-0.479-0.584v-3.215c0-0.324,0.215-0.586,0.479-0.586H2.042z"/>
	<path fill="#FFFFFF" d="M44.568,441.361c0.264,0,0.479,0.262,0.479,0.586v3.215c0,0.322-0.215,0.584-0.479,0.584H13.958
		c-0.264,0-0.477-0.262-0.477-0.584v-3.215c0-0.324,0.213-0.586,0.477-0.586H44.568z"/>
	<path fill="#FFFFFF" d="M87.093,441.361c0.266,0,0.479,0.262,0.479,0.586v3.215c0,0.322-0.213,0.584-0.479,0.584H56.486
		c-0.266,0-0.48-0.262-0.48-0.584v-3.215c0-0.324,0.215-0.586,0.48-0.586H87.093z"/>
</g>
<g>
	<path fill="#123035" d="M63.519-114.458c0-0.324,0.262-0.584,0.585-0.584h39.455c0.324,0,0.586,0.26,0.586,0.584V78.826
		c0,0.323-0.262,0.584-0.584,0.584H64.104c-0.323,0-0.585-0.261-0.585-0.584V-114.458z"/>
	<path fill="#FFFFFF" d="M81.64,30.668c0-0.265,0.262-0.479,0.585-0.479h3.215c0.322,0,0.584,0.215,0.584,0.479v30.608
		c0,0.265-0.262,0.479-0.584,0.479h-3.215c-0.323,0-0.585-0.214-0.585-0.479V30.668z"/>
	<path fill="#FFFFFF" d="M81.64-11.857c0-0.266,0.262-0.479,0.585-0.479h3.215c0.322,0,0.584,0.213,0.584,0.479v30.608
		c0,0.264-0.262,0.479-0.584,0.479h-3.215c-0.323,0-0.585-0.215-0.585-0.479V-11.857z"/>
	<path fill="#FFFFFF" d="M81.64-54.383c0-0.266,0.262-0.48,0.585-0.48h3.215c0.322,0,0.584,0.215,0.584,0.48v30.607
		c0,0.266-0.262,0.479-0.584,0.479h-3.215c-0.323,0-0.585-0.213-0.585-0.479V-54.383z"/>
	<path fill="#FFFFFF" d="M81.64-96.908c0-0.266,0.262-0.479,0.585-0.479h3.215c0.322,0,0.584,0.213,0.584,0.479v30.607
		c0,0.266-0.262,0.48-0.584,0.48h-3.215c-0.323,0-0.585-0.215-0.585-0.48V-96.908z"/>
</g>
<g>
	<g>
		<path fill="#123035" d="M555.998,81.039c0,0.324-0.262,0.584-0.585,0.584h-39.456c-0.323,0-0.585-0.26-0.585-0.584v-193.283
			c0-0.323,0.262-0.584,0.585-0.584h39.456c0.323,0,0.585,0.261,0.585,0.584V81.039z"/>
		<path fill="#FFFFFF" d="M537.877-64.087c0,0.265-0.262,0.479-0.585,0.479h-3.215c-0.322,0-0.584-0.215-0.584-0.479v-30.608
			c0-0.265,0.262-0.479,0.584-0.479h3.215c0.323,0,0.585,0.214,0.585,0.479V-64.087z"/>
		<path fill="#FFFFFF" d="M537.877-21.561c0,0.265-0.262,0.479-0.585,0.479h-3.215c-0.322,0-0.584-0.214-0.584-0.479V-52.17
			c0-0.264,0.262-0.479,0.584-0.479h3.215c0.323,0,0.585,0.215,0.585,0.479V-21.561z"/>
		<path fill="#FFFFFF" d="M537.877,20.965c0,0.265-0.262,0.479-0.585,0.479h-3.215c-0.322,0-0.584-0.215-0.584-0.479V-9.644
			c0-0.265,0.262-0.478,0.584-0.478h3.215c0.323,0,0.585,0.213,0.585,0.478V20.965z"/>
		<path fill="#FFFFFF" d="M537.877,63.49c0,0.266-0.262,0.479-0.585,0.479h-3.215c-0.322,0-0.584-0.213-0.584-0.479V32.883
			c0-0.266,0.262-0.48,0.584-0.48h3.215c0.323,0,0.585,0.215,0.585,0.48V63.49z"/>
	</g>
</g>
<g>
	<path fill="#123035" d="M56.909,423.631c0,0,124.83,1.174,135.937,1.078c11.109-0.096,15.781-2.193,15.895-14.275
		s1.299-139.126,1.299-139.126c0.004-0.322,0.268-0.582,0.59-0.578l39.75,0.371c0.324,0.002,0.582,0.266,0.58,0.59
		c0,0-1.238,172.056-1.699,181.796c-0.457,9.74-5.941,12.545-14.709,12.475c-8.768-0.068-177.965-1.41-177.965-1.41
		c-0.324-0.002-0.583-0.266-0.58-0.588l0.314-39.752C56.322,423.889,56.585,423.631,56.909,423.631z"/>
	<path fill="#FFFFFF" d="M227.294,354.138c-0.004,0.264,0.258,0.48,0.58,0.484l3.215,0.029c0.322,0.004,0.586-0.207,0.59-0.473
		l0.285-30.607c0.002-0.266-0.258-0.482-0.58-0.486l-3.217-0.029c-0.32-0.002-0.586,0.209-0.588,0.475L227.294,354.138z"/>
	<path fill="#FFFFFF" d="M227.691,311.612c-0.004,0.266,0.26,0.482,0.58,0.484l3.217,0.031c0.32,0.002,0.584-0.209,0.588-0.473
		l0.285-30.609c0.002-0.266-0.258-0.48-0.578-0.484l-3.217-0.031c-0.322-0.002-0.588,0.209-0.59,0.475L227.691,311.612z"/>
	<path fill="#FFFFFF" d="M226.896,396.662c-0.002,0.264,0.258,0.48,0.582,0.484l3.215,0.029c0.322,0.004,0.586-0.207,0.588-0.473
		l0.287-30.61c0.002-0.264-0.258-0.479-0.582-0.482l-3.215-0.029c-0.322-0.004-0.586,0.207-0.588,0.473L226.896,396.662z"/>
	<path fill="#FFFFFF" d="M226.5,439.186c-0.002,0.266,0.256,0.482,0.582,0.484l3.213,0.031c0.324,0.002,0.588-0.209,0.59-0.475
		l0.287-30.607c0.002-0.264-0.26-0.48-0.582-0.482l-3.215-0.031c-0.322-0.002-0.586,0.209-0.588,0.473L226.5,439.186z"/>
	<path fill="#FFFFFF" d="M175.147,445.178c-0.002,0.322,0.256,0.586,0.579,0.59l35.219,0.328c0.322,0.004,0.586-0.256,0.59-0.578
		l0.029-3.215c0.004-0.322-0.258-0.588-0.578-0.59l-35.219-0.328c-0.322-0.004-0.588,0.254-0.59,0.578L175.147,445.178z"/>
	<path fill="#FFFFFF" d="M122.536,444.688c-0.003,0.32,0.256,0.586,0.579,0.588l35.22,0.33c0.325,0.002,0.589-0.258,0.593-0.58
		l0.028-3.215c0.004-0.322-0.256-0.586-0.577-0.59l-35.223-0.328c-0.323-0.004-0.588,0.256-0.591,0.578L122.536,444.688z"/>
	<path fill="#FFFFFF" d="M72.997,444.225c-0.003,0.322,0.256,0.586,0.579,0.59l35.219,0.328c0.322,0.004,0.586-0.256,0.589-0.58
		l0.03-3.215c0.003-0.322-0.256-0.586-0.578-0.59l-35.219-0.328c-0.322-0.004-0.587,0.256-0.59,0.58L72.997,444.225z"/>
</g>
<g>
	<g>
		<path fill="#123035" d="M555.806,782.479c0,0.324-0.262,0.584-0.585,0.584h-39.456c-0.323,0-0.585-0.26-0.585-0.584V589.196
			c0-0.323,0.262-0.584,0.585-0.584h39.456c0.323,0,0.585,0.261,0.585,0.584V782.479z"/>
		<path fill="#FFFFFF" d="M537.685,637.354c0,0.265-0.262,0.479-0.585,0.479h-3.215c-0.322,0-0.584-0.215-0.584-0.479v-30.608
			c0-0.265,0.262-0.479,0.584-0.479h3.215c0.323,0,0.585,0.214,0.585,0.479V637.354z"/>
		<path fill="#FFFFFF" d="M537.685,679.88c0,0.265-0.262,0.479-0.585,0.479h-3.215c-0.322,0-0.584-0.214-0.584-0.479v-30.609
			c0-0.264,0.262-0.479,0.584-0.479h3.215c0.323,0,0.585,0.215,0.585,0.479V679.88z"/>
		<path fill="#FFFFFF" d="M537.685,722.405c0,0.265-0.262,0.479-0.585,0.479h-3.215c-0.322,0-0.584-0.215-0.584-0.479v-30.608
			c0-0.265,0.262-0.478,0.584-0.478h3.215c0.323,0,0.585,0.213,0.585,0.478V722.405z"/>
		<path fill="#FFFFFF" d="M537.685,764.931c0,0.266-0.262,0.479-0.585,0.479h-3.215c-0.322,0-0.584-0.213-0.584-0.479v-30.607
			c0-0.266,0.262-0.48,0.584-0.48h3.215c0.323,0,0.585,0.215,0.585,0.48V764.931z"/>
	</g>
	<g>
		<path fill="#123035" d="M555.806,607.245c0,0.324-0.262,0.584-0.585,0.584h-39.456c-0.323,0-0.585-0.26-0.585-0.584V413.962
			c0-0.323,0.262-0.584,0.585-0.584h39.456c0.323,0,0.585,0.261,0.585,0.584V607.245z"/>
		<path fill="#FFFFFF" d="M537.685,462.119c0,0.265-0.262,0.479-0.585,0.479h-3.215c-0.322,0-0.584-0.215-0.584-0.479v-30.608
			c0-0.265,0.262-0.479,0.584-0.479h3.215c0.323,0,0.585,0.214,0.585,0.479V462.119z"/>
		<path fill="#FFFFFF" d="M537.685,504.646c0,0.265-0.262,0.479-0.585,0.479h-3.215c-0.322,0-0.584-0.214-0.584-0.479v-30.609
			c0-0.264,0.262-0.479,0.584-0.479h3.215c0.323,0,0.585,0.215,0.585,0.479V504.646z"/>
		<path fill="#FFFFFF" d="M537.685,547.171c0,0.265-0.262,0.479-0.585,0.479h-3.215c-0.322,0-0.584-0.215-0.584-0.479v-30.608
			c0-0.265,0.262-0.478,0.584-0.478h3.215c0.323,0,0.585,0.213,0.585,0.478V547.171z"/>
		<path fill="#FFFFFF" d="M537.685,589.696c0,0.266-0.262,0.479-0.585,0.479h-3.215c-0.322,0-0.584-0.213-0.584-0.479v-30.607
			c0-0.266,0.262-0.48,0.584-0.48h3.215c0.323,0,0.585,0.215,0.585,0.48V589.696z"/>
	</g>
</g>
<g>
	<g>
		<path fill="#123035" d="M600.557,253.055c-0.324,0-0.584-0.262-0.584-0.586v-39.456c0-0.323,0.26-0.585,0.584-0.585H793.84
			c0.324,0,0.584,0.262,0.584,0.585v39.456c0,0.324-0.26,0.586-0.584,0.586H600.557z"/>
		<path fill="#FFFFFF" d="M745.684,234.933c-0.266,0-0.48-0.262-0.48-0.585v-3.215c0-0.322,0.215-0.584,0.48-0.584h30.607
			c0.266,0,0.479,0.262,0.479,0.584v3.215c0,0.323-0.213,0.585-0.479,0.585H745.684z"/>
		<path fill="#FFFFFF" d="M703.156,234.933c-0.264,0-0.479-0.262-0.479-0.585v-3.215c0-0.322,0.215-0.584,0.479-0.584h30.609
			c0.264,0,0.479,0.262,0.479,0.584v3.215c0,0.323-0.215,0.585-0.479,0.585H703.156z"/>
		<path fill="#FFFFFF" d="M660.631,234.933c-0.264,0-0.479-0.262-0.479-0.585v-3.215c0-0.322,0.215-0.584,0.479-0.584h30.609
			c0.264,0,0.477,0.262,0.477,0.584v3.215c0,0.323-0.213,0.585-0.477,0.585H660.631z"/>
		<path fill="#FFFFFF" d="M618.105,234.933c-0.266,0-0.479-0.262-0.479-0.585v-3.215c0-0.322,0.213-0.584,0.479-0.584h30.607
			c0.266,0,0.48,0.262,0.48,0.584v3.215c0,0.323-0.215,0.585-0.48,0.585H618.105z"/>
	</g>
	<g>
		<path fill="#123035" d="M775.791,253.055c-0.324,0-0.584-0.262-0.584-0.586v-39.456c0-0.323,0.26-0.585,0.584-0.585h193.283
			c0.324,0,0.584,0.262,0.584,0.585v39.456c0,0.324-0.26,0.586-0.584,0.586H775.791z"/>
		<path fill="#FFFFFF" d="M920.918,234.933c-0.266,0-0.48-0.262-0.48-0.585v-3.215c0-0.322,0.215-0.584,0.48-0.584h30.607
			c0.266,0,0.479,0.262,0.479,0.584v3.215c0,0.323-0.213,0.585-0.479,0.585H920.918z"/>
		<path fill="#FFFFFF" d="M878.391,234.933c-0.264,0-0.479-0.262-0.479-0.585v-3.215c0-0.322,0.215-0.584,0.479-0.584H909
			c0.264,0,0.479,0.262,0.479,0.584v3.215c0,0.323-0.215,0.585-0.479,0.585H878.391z"/>
		<path fill="#FFFFFF" d="M835.865,234.933c-0.264,0-0.479-0.262-0.479-0.585v-3.215c0-0.322,0.215-0.584,0.479-0.584h30.609
			c0.264,0,0.477,0.262,0.477,0.584v3.215c0,0.323-0.213,0.585-0.477,0.585H835.865z"/>
		<path fill="#FFFFFF" d="M793.34,234.933c-0.266,0-0.479-0.262-0.479-0.585v-3.215c0-0.322,0.213-0.584,0.479-0.584h30.607
			c0.266,0,0.48,0.262,0.48,0.584v3.215c0,0.323-0.215,0.585-0.48,0.585H793.34z"/>
	</g>
</g>
<path opacity="0.7" fill="#8F4C68" d="M385.383,113.903c-17.582,0-31.834,14.252-31.834,31.833
	c0,17.581,31.834,60.773,31.834,60.773s31.834-43.192,31.834-60.772C417.217,128.156,402.965,113.903,385.383,113.903z"/>
</svg>
