<?xml version="1.0" encoding="utf-8"?>
<!-- Generator: Adobe Illustrator 15.1.0, SVG Export Plug-In . SVG Version: 6.00 Build 0)  -->
<!DOCTYPE svg PUBLIC "-//W3C//DTD SVG 1.1//EN" "http://www.w3.org/Graphics/SVG/1.1/DTD/svg11.dtd">
<svg version="1.1" id="Layer_3" xmlns="http://www.w3.org/2000/svg" xmlns:xlink="http://www.w3.org/1999/xlink" x="0px" y="0px"
	 width="700px" height="500px" viewBox="0 0 700 500" enable-background="new 0 0 700 500" xml:space="preserve">
<polygon opacity="0.22" fill="#4D4D4D" points="383.518,178.145 416.206,345.153 263.458,299.67 "/>
<path fill="#666666" d="M147.265,178.145h5.611c0.003-30.554,12.369-58.164,32.389-78.193c20.03-20.02,47.639-32.386,78.193-32.389
	c30.555,0.003,58.165,12.369,78.195,32.389c20.019,20.03,32.385,47.639,32.389,78.193c-0.004,30.555-12.37,58.165-32.389,78.195
	c-20.03,20.019-47.641,32.386-78.195,32.39c-30.554-0.004-58.164-12.371-78.193-32.39c-20.02-20.03-32.386-47.641-32.389-78.195
	H147.265h-5.612c-0.003,33.618,13.643,64.105,35.677,86.13c22.024,22.033,52.51,35.678,86.128,35.678s64.104-13.645,86.129-35.678
	c22.034-22.024,35.681-52.512,35.679-86.13c0.002-33.617-13.645-64.104-35.679-86.128c-22.024-22.034-52.511-35.679-86.129-35.677
	c-33.617-0.002-64.104,13.643-86.128,35.677c-22.034,22.024-35.68,52.51-35.677,86.128H147.265z"/>
<path opacity="0.6" fill="#1995A5" d="M256.959,283.322v-15.157h-55.687c9.848,6.753,20.862,11.914,32.676,15.157H256.959z"/>
<path opacity="0.6" fill="#1995A5" d="M328.264,90.82c-18.22-13.665-40.855-21.762-65.383-21.762
	c-33.429,0-63.33,15.052-83.34,38.731c38.851,0,100.495,0,108.925,0c11.3,0,12.717,0.036,12.785,11.84
	c0.002,0.32,0.006,0.614,0.006,0.952v159.691c41.309-15.53,70.712-55.388,70.712-102.127
	C371.969,142.426,354.799,110.719,328.264,90.82z"/>
<path fill="#FFFFFF" d="M179.956,248.98l0.895-0.954h-1.72C179.4,248.349,179.683,248.66,179.956,248.98z"/>
<path opacity="0.6" fill="#1995A5" d="M256.959,126.977h-90.424c-2.579,4.847-4.794,9.913-6.629,15.161h97.053V126.977z"/>
<path opacity="0.7" fill="#8F4C68" d="M154.956,162.273c-0.722,4.954-1.112,10.015-1.145,15.161h103.147v-10.572v-4.589H154.956z"/>
<path opacity="0.6" fill="#1995A5" d="M155.553,197.57c0.933,5.191,2.231,10.252,3.871,15.16h97.535v-15.16H155.553z"/>
<path fill="#FFFFFF" d="M179.956,248.98c6.229,7.285,13.39,13.748,21.316,19.185h55.687v15.157h-23.01
	c9.217,2.533,18.911,3.909,28.932,3.909c13.509,0,26.437-2.473,38.375-6.96V120.581c0-0.337-0.004-0.631-0.006-0.952
	c-0.068-11.804-1.485-11.84-12.785-11.84c-8.43,0-70.074,0-108.925,0c-4.981,5.896-9.35,12.321-13.005,19.188h90.424v15.161h-97.053
	c-2.259,6.458-3.936,13.188-4.95,20.136h102.003v4.589v10.572h-9.913h-93.234c-0.001,0.237-0.018,0.472-0.018,0.71
	c0,6.634,0.625,13.119,1.76,19.426h72.611h28.795v15.16h-43.01h-54.524c2.36,7.062,5.419,13.8,9.102,20.135h26.541h61.892v15.161
	h-76.108"/>
<path opacity="0.6" fill="#1995A5" d="M256.959,232.865h-61.892h-26.541c3.114,5.356,6.655,10.435,10.604,15.161h1.72h76.108
	V232.865z"/>
<path fill="#24AFB2" d="M276.857,125.555c4.709,0,8.528,3.818,8.528,8.529c0,4.709-3.818,8.528-8.528,8.528
	s-8.528-3.819-8.528-8.528C268.33,129.374,272.148,125.555,276.857,125.555 M276.857,126.977c-3.919,0-7.106,3.189-7.106,7.107
	c0,3.919,3.188,7.106,7.106,7.106c3.918,0,7.106-3.188,7.106-7.106C283.964,130.166,280.776,126.977,276.857,126.977z"/>
<path fill="#24AFB2" d="M276.857,196.245c4.709,0,8.528,3.818,8.528,8.528c0,4.709-3.818,8.527-8.528,8.527
	s-8.528-3.818-8.528-8.527C268.33,200.063,272.148,196.245,276.857,196.245 M276.857,197.667c-3.919,0-7.106,3.188-7.106,7.106
	c0,3.918,3.188,7.106,7.106,7.106c3.918,0,7.106-3.188,7.106-7.106C283.964,200.854,280.776,197.667,276.857,197.667z"/>
<path fill="#24AFB2" d="M276.857,231.592c4.709,0,8.528,3.818,8.528,8.526c0,4.709-3.818,8.527-8.528,8.527
	s-8.528-3.818-8.528-8.527C268.33,235.41,272.148,231.592,276.857,231.592 M276.857,233.012c-3.919,0-7.106,3.188-7.106,7.106
	c0,3.92,3.188,7.106,7.106,7.106c3.918,0,7.106-3.187,7.106-7.106C283.964,236.199,280.776,233.012,276.857,233.012z"/>
<path fill="#24AFB2" d="M276.857,266.935c4.709,0,8.528,3.818,8.528,8.53c0,4.709-3.818,8.527-8.528,8.527s-8.528-3.818-8.528-8.527
	C268.33,270.753,272.148,266.935,276.857,266.935 M276.857,268.356c-3.919,0-7.106,3.188-7.106,7.108
	c0,3.916,3.188,7.104,7.106,7.104c3.918,0,7.106-3.188,7.106-7.104C283.964,271.545,280.776,268.356,276.857,268.356z"/>
<polygon opacity="0.7" fill="#8F4C68" points="266.563,165.296 269.472,162.493 277.987,171.009 292.266,156.729 295.175,159.639 
	278.04,176.773 "/>
<path opacity="0.42" fill="#FFFFFF" d="M262.881,69.058c-33.429,0-63.33,15.052-83.34,38.731
	c-4.981,5.896-9.35,12.321-13.005,19.188c-2.579,4.847-4.794,9.913-6.629,15.161c-2.259,6.458-3.936,13.188-4.95,20.136
	c-0.722,4.954-1.112,10.015-1.145,15.161c-0.001,0.237-0.018,0.472-0.018,0.71c0,6.634,0.625,13.119,1.76,19.426
	c0.933,5.191,2.231,10.252,3.871,15.16c2.36,7.062,5.419,13.8,9.102,20.135c3.114,5.356,6.655,10.435,10.604,15.161h1.72
	l14.216-15.161l18.881-20.135l14.215-15.16l18.882-20.136l9.913-10.572l44.291-47.233l27.014-28.809
	C310.044,77.155,287.408,69.058,262.881,69.058z"/>
<path d="M438.691,372.391c16.951,0,32.888,6.622,44.863,18.668c11.998,12.043,18.604,28.087,18.604,45.166h26.124
	c0-49.606-40.194-89.961-89.592-89.961V372.391z M438.73,326.076c60.417,0,109.574,49.428,109.574,110.181h26.124
	c0-75.163-60.876-136.305-135.698-136.305V326.076z M474.855,418.006c0,9.992-8.104,18.096-18.093,18.096
	c-9.992,0-18.096-8.101-18.096-18.096c0-9.997,8.101-18.095,18.093-18.095C466.749,399.911,474.855,408.009,474.855,418.006z"/>
</svg>
