<?xml version="1.0" encoding="utf-8"?>
<!-- Generator: Adobe Illustrator 15.1.0, SVG Export Plug-In . SVG Version: 6.00 Build 0)  -->
<!DOCTYPE svg PUBLIC "-//W3C//DTD SVG 1.1//EN" "http://www.w3.org/Graphics/SVG/1.1/DTD/svg11.dtd">
<svg version="1.1" id="Layer_2" xmlns="http://www.w3.org/2000/svg" xmlns:xlink="http://www.w3.org/1999/xlink" x="0px" y="0px"
	 width="700px" height="500px" viewBox="0 0 700 500" enable-background="new 0 0 700 500" xml:space="preserve">
<g>
	<path fill="#AA7552" d="M297.965,260.473h-6.12c-3.439,0-6.103,3.229-6.103,6.666v4.25c0,2.623,1.332,4.844,3.424,5.855
		l-2.672,35.77h16.825l-2.305-35.77c2.099-1.012,3.832-3.232,3.832-5.855v-4.25C304.847,263.701,301.208,260.473,297.965,260.473
		L297.965,260.473z"/>
	<path fill="#FFFFFF" d="M384.7,271.389c-12.616-3.639-56.755-15.367-56.755-15.367s-11.449,63.055-25.02,63.055h-16.809
		c-12.223,0-21.969-56.383-25.222-62.648c0,0-44.133,11.523-56.738,15.156c-12.609,3.633-15.478,33.957-15.478,55.582
		c0,0,27.513,17.178,105.847,17.178c78.139,0,105.649-17.178,105.649-17.178C400.176,305.541,397.496,275.029,384.7,271.389z
		 M196.517,321.91c0.556-29.104,6.102-41.631,9.738-42.643c9.356-2.629,36.681-9.904,49.67-13.344
		c0.392,1.826,0.948,3.648,1.341,5.465c8.211,32.537,14.903,55.572,28.85,55.572h16.809c9.934,0,17.388-11.113,25.02-37.188
		c2.68-8.889,4.598-17.783,5.938-24.045c13.182,3.635,39.737,10.707,48.911,13.334c3.631,1.016,9.172,13.551,9.74,42.643
		c-9.74,4.248-38.976,14.156-97.822,14.156C235.68,336.055,206.254,326.16,196.517,321.91z"/>
	<path fill="#FFFFFF" d="M336.941,155.171c-5.926-28.896-32.095-33.346-44.714-33.346c-15.484,0-40.502,3.64-44.699,37.997
		c-3.262,26.479,8.397,60.631,16.806,72.147c9.56,12.74,17.96,19.206,29.809,19.206c10.882,0,18.333-5.662,28.468-21.021
		C331.786,216.014,341.721,179.635,336.941,155.171z M316.299,225.516c-9.55,14.75-15.091,17.372-22.156,17.372
		c-8.606,0-15.092-4.443-23.885-16.172c-6.691-9.095-18.343-40.825-15.288-66.082c2.672-21.423,14.144-30.926,37.061-30.926
		c28.664,0,35.547,19.004,37.26,27.08C333.885,179.023,324.513,212.981,316.299,225.516z"/>
</g>
<path fill="none" stroke="#AA7552" stroke-width="5.8435" stroke-miterlimit="10" d="M246.707,169.244L246.707,169.244
	c11.694-1.395,31.01-1.242,45.071,2.485c0.308,0.058,0.615,0.126,0.904,0.174c0.292-0.047,0.614-0.116,0.896-0.174
	c14.828-3.932,32.625-3.963,45.087-2.485l0,0l0,0"/>
<path fill="#AA7552" d="M243.138,165.815c0.079,0.064,0.137,5.125,0.241,5.134c2.185,0.853,3.123,2.986,3.123,2.986
	s0.675,1.896,2.57,9.573c1.906,7.712,6.455,8.623,6.455,8.623s5.557,1.327,11.95,1.327c6.418,0,10.251-0.279,14.365-2.252
	c4.098-1.987,5.89-7.479,5.89-7.479s2.082-4.742,3.508-9.218c0.213-0.667,0.768-1.13,1.443-1.432
	c0.676,0.302,1.239,0.764,1.468,1.432c1.417,4.476,3.473,9.218,3.473,9.218s1.804,5.492,5.908,7.479
	c4.105,1.973,7.949,2.252,14.355,2.252c6.414,0,11.972-1.327,11.972-1.327s4.541-0.911,6.443-8.623
	c1.904-7.677,2.55-9.573,2.55-9.573s0.948-2.133,3.144-2.986c0.094-0.008,0.16-0.049,0.23-0.131l0,0l0,0"/>
<path opacity="0.9" fill="#123035" enable-background="new    " d="M254.135,169.921c-2.929,2.007-2.033,6.905-1.801,8.534
	c0.222,1.617,0.783,3.844,1.442,5.204c1.509,3.151,2.809,3.638,5.386,4.211c2.577,0.541,5.214,0.695,8.441,0.695
	c5.575,0,9.997-1.079,12.029-2.454c2.004-1.355,3.924-4.661,4.533-6.511c0.425-1.28,3.662-7.219-1.785-8.957
	c-5.445-1.754-11.045-2.223-14.127-2.295C265.196,168.262,256.488,168.311,254.135,169.921L254.135,169.921z"/>
<path opacity="0.9" fill="#123035" enable-background="new    " d="M331.249,169.921c2.918,2.007,2.021,6.905,1.799,8.534
	c-0.23,1.617-0.785,3.844-1.441,5.204c-1.527,3.151-2.809,3.638-5.404,4.211c-2.578,0.541-5.205,0.695-8.432,0.695
	c-5.566,0-9.997-1.079-12.019-2.454c-2.017-1.355-3.934-4.661-4.549-6.511c-0.428-1.28-3.664-7.219,1.791-8.957
	c5.439-1.754,11.046-2.223,14.128-2.295C320.185,168.262,328.874,168.311,331.249,169.921L331.249,169.921z"/>
<polygon fill="#AA7552" points="342.226,170.818 338.495,170.688 338.889,166.273 341.499,166.273 "/>
<rect x="292.906" y="368.084" fill="none" width="214.539" height="53.615"/>
<text transform="matrix(0.9453 0 0 1 292.9058 397.3262)" fill="#FFFFFF" font-family="'HelveticaNeue-Light'" font-size="40.955"> </text>
<text transform="matrix(0.9453 0 0 1 305.605 397.3262)" opacity="0.7" fill="#DD7CBA" enable-background="new    " font-family="'HelveticaNeue-Light'" font-size="40.955">technology</text>
<g opacity="0.75">
	<rect x="81.409" y="204.77" fill="none" width="214.54" height="53.615"/>
	
		<text transform="matrix(0.9453 0 0 1 81.4087 234.0112)" opacity="0.75" fill="#55BCBC" enable-background="new    " font-family="'HelveticaNeue-Thin'" font-size="40.955">science</text>
</g>
<g opacity="0.75">
	<rect x="353.519" y="95.019" fill="none" width="214.539" height="53.615"/>
	<text transform="matrix(0.9453 0 0 1 353.5176 124.2603)" fill="#42A829" font-family="'HelveticaNeue-Thin'" font-size="40.955">education</text>
	<text transform="matrix(0.9453 0 0 1 529.5146 124.2603)" fill="#FFFFFF" font-family="'HelveticaNeue-Thin'" font-size="40.955"> </text>
</g>
<g>
	<path fill="#35740C" d="M575.849,80.123c1.993-2.315,2.486-2.275,2.486-2.275c2.827,2.502,7.857,3.385,11.708,2.071
		c5.101-1.745,6.393-8.458,13.417-9.915c1.634-0.346-11.229-7.605-19.266-5.305c-5.869,1.678-7.646,6.877-7.854,8.48
		c-0.191,1.447,0.257,2.833,0.257,2.833c-1.922,1.652-2.521,2.69-2.521,2.69C573.534,79.368,575.178,80.901,575.849,80.123z
		 M578.569,75.301c6.216-5.492,16.387-6.185,16.387-6.185s-8.025,1.167-15.498,7.406C579.05,76.285,578.637,75.696,578.569,75.301z"
		/>
</g>
<g id="g4213_2_" transform="matrix(1.3157811,0,0,1.3065705,-134.89456,960.51297)">
	<path id="path4179_2_" fill="none" stroke="#AA7552" stroke-width="3.6797" stroke-miterlimit="10" d="M540.469-664.523
		c0-3.184-0.706-6.2-2.062-8.827c-1.044-2.008-2.457-3.791-4.196-5.269"/>
</g>
<g id="g4213_3_" transform="matrix(1.3157811,0,0,1.3065705,-134.89456,960.51297)">
	<path id="path4179_3_" fill="#8F4C68" d="M549.93-670.58c-3.145-0.07-6.449,1.036-9.391,3.165c-0.128,0.088-0.301,0.088-0.427,0
		c-3.091-2.239-6.583-3.34-9.867-3.147c-1.475,0.088-2.909,0.43-4.245,1.018c-1.95,0.848-3.704,2.217-5.135,4.001
		c-1.438,1.786-2.544,3.991-3.243,6.45c-1.395,4.917-1.067,8.216,0.908,13.472c1.91,5.082,5.506,11.842,9.316,14.629
		c1.981,1.449,6.017,2.373,12.478,0.79c0.082-0.029-0.081-0.029,0,0c3.853,1.386,9.644,1.77,13.636-0.746
		c3.985-2.516,7.352-6.636,9.259-11.722c1.976-5.257,3.828-11.506,2.434-16.423c-0.698-2.459-1.807-4.664-3.244-6.45
		c-1.431-1.784-3.226-2.776-5.173-3.626C555.751-669.819,551.57-670.544,549.93-670.58z"/>
</g>
<path fill="none" stroke="#FFFFFF" stroke-width="3.6797" stroke-miterlimit="10" d="M139.804,146.594l9.954-9.954
	c4.16,2.506,7.194,6.777,7.197,11.99c-7.952,0.002-14.393,6.449-14.395,14.399h-28.783l0.002,4.795h14.39
	c1.432,1.069,3.154,1.658,4.8,2.401l-0.003,7.192h-9.594l-9.595,9.595h57.569l-9.595-9.597l-1.725,0.002
	c6.469-1.402,11.319-7.494,11.319-14.389c0-4.385-1.998-8.254-5.093-10.9c0.18-1.143,0.293-2.304,0.293-3.497
	c0-7.856-3.738-14.831-9.595-19.187l4.8-4.795v-4.802l4.795-4.793l-4.795-4.799l-4.797,4.795l-4.8,0.004l-21.946,21.942
	L139.804,146.594z M152.157,163.029c0-2.653,2.143-4.801,4.795-4.801c2.65,0,4.8,2.147,4.8,4.801c0,2.643-2.149,4.795-4.8,4.795
	C154.299,167.824,152.154,165.671,152.157,163.029z"/>
<g>
	<g>
		<path fill="#419928" d="M138.084,156.772c-3.021-0.466-3.247-0.903-3.247-0.903c0.617-3.728-1.308-8.46-4.463-11.022
			c-4.184-3.395-10.562-0.93-15.523-6.112c-1.158-1.201-0.481,13.555,5.728,19.143c4.542,4.084,9.89,2.828,11.354,2.16
			c1.337-0.609,2.267-1.721,2.267-1.721c2.427,0.75,3.621,0.705,3.621,0.705C138.671,159.129,139.1,156.922,138.084,156.772z
			 M132.551,157.019c-7.954-2.353-13.938-10.604-13.938-10.604s5.25,6.189,14.5,9.208
			C133.13,156.093,132.853,156.758,132.551,157.019z"/>
	</g>
</g>
<path fill="#AA7552" d="M600.372,395.184h-0.956c-0.544,0.004-0.956,0.484-0.953,0.988v0.633c0.004,0.389,0.217,0.713,0.54,0.863
	l-0.4,5.285l2.63-0.006l-0.375-5.289c0.324-0.148,0.596-0.477,0.596-0.865v-0.631C601.445,395.656,600.877,395.184,600.372,395.184
	L600.372,395.184z"/>
<path fill="none" stroke="#FFFFFF" stroke-miterlimit="10" d="M606.007,380.815c-0.825-3.758-4.43-4.326-6.157-4.318
	c-2.137,0.006-5.572,0.49-6.141,4.965c-0.431,3.438,1.186,7.875,2.346,9.373c1.317,1.646,2.479,2.484,4.111,2.482
	c1.497-0.008,2.516-0.748,3.904-2.742C605.324,388.725,606.676,383.988,606.007,380.815z"/>
<path fill="none" stroke="#FFFFFF" stroke-miterlimit="10" d="M586.028,419.207c0,0,1.777,2.531,14.031,2.492
	c12.213-0.039,13.979-2.586,13.979-2.586c-0.018-3.199-0.487-20.375-2.491-20.904c-1.974-0.533-6.346-2.254-6.346-2.254
	s-1.765,9.324-3.886,9.334l-2.624,0.01c-1.913,0.008-3.472-8.324-3.98-9.25c0,0-4.357,1.721-6.332,2.264l-15.078,7.869
	l-13.567-11.367c-2.148,0.008-3.781,2.309-3.482,4.016l17.024,14.32l13.312-6.951L586.028,419.207z"/>
<path fill="none" stroke="#AA7552" stroke-width="4.137" stroke-miterlimit="10" d="M601.841,372.746v-5.912
	c0-5.504-4.505-10.01-10.008-10.01l0,0h-59.029c-5.507,0-10.01,4.506-10.01,10.01v42.023c0,5.506,4.503,10.004,10.01,10.004h43.564"
	/>
<path fill="#FFFFFF" d="M557.096,383.031c-6.128,0.021-8.707-2.66-11.754-5.699c-3.113-3.17-6.62-6.791-14.658-6.76l0.006,1.793
	c6.658-0.023,9.503,2.883,12.482,5.967c2.979,3.037,6.419,6.521,13.93,6.496L557.096,383.031L557.096,383.031z"/>
<path opacity="0.75" fill="#55BCBC" enable-background="new    " d="M532.717,384.02l-0.049-12.113c0-0.266,0.266-0.447,0.655-0.447
	c0.391,0,0.656,0.182,0.662,0.447l0.043,12.109c0,0.27-0.262,0.443-0.656,0.449C532.983,384.467,532.72,384.291,532.717,384.02z"/>
<path fill="#42A829" d="M537.975,382.203l-0.031-8.965c0-0.271,0.265-0.447,0.655-0.453c0.388,0,0.656,0.18,0.656,0.445l0.036,8.969
	c0,0.271-0.263,0.447-0.656,0.449C538.242,382.656,537.981,382.475,537.975,382.203z"/>
<path fill="#42A829" d="M553.806,383.494l-0.045-12.111c0-0.271,0.265-0.449,0.652-0.449c0.396-0.004,0.655,0.178,0.658,0.443
	l0.045,12.113c0,0.27-0.265,0.447-0.651,0.447C554.069,383.94,553.809,383.758,553.806,383.494z"/>
<path opacity="0.75" fill="#55BCBC" enable-background="new    " d="M548.523,382.164l-0.032-8.969c0-0.268,0.263-0.449,0.652-0.449
	c0.395,0,0.66,0.178,0.66,0.447l0.031,8.965c0.004,0.271-0.262,0.447-0.652,0.449C548.793,382.611,548.526,382.438,548.523,382.164z
	"/>
<path fill="#FFFFFF" d="M530.737,384.924l-0.01-1.791c6.658-0.027,9.48-2.953,12.44-6.062c2.95-3.059,6.363-6.57,13.882-6.6
	l0.006,1.797c-6.134,0.02-8.69,2.721-11.713,5.785C542.258,381.25,538.782,384.893,530.737,384.924z"/>
<path fill="#FFFFFF" d="M557.108,384.828l-0.008-1.797c6.659-0.025,9.477-2.953,12.438-6.057c2.954-3.061,6.364-6.574,13.88-6.604
	l0.013,1.793c-6.138,0.027-8.694,2.729-11.713,5.789C568.628,381.147,565.153,384.795,557.108,384.828z"/>
<path opacity="0.7" fill="#DD7CBA" enable-background="new    " d="M559.889,383.936c-0.396,0-0.653-0.178-0.653-0.445l0.046-12.115
	c0-0.264,0.259-0.445,0.659-0.443c0.388,0,0.652,0.18,0.649,0.449l-0.042,12.111C560.54,383.758,560.275,383.94,559.889,383.936z"/>
<path opacity="0.75" fill="#55BCBC" enable-background="new    " d="M565.165,382.608c-0.391-0.002-0.655-0.178-0.655-0.449
	l0.036-8.965c0-0.27,0.269-0.447,0.655-0.447c0.396,0,0.659,0.182,0.659,0.449l-0.035,8.969
	C565.821,382.438,565.558,382.611,565.165,382.608z"/>
<path fill="#42A829" d="M580.938,384.221c-0.392,0-0.656-0.178-0.656-0.445l0.045-12.115c0.006-0.264,0.267-0.445,0.66-0.445
	s0.655,0.182,0.655,0.451l-0.049,12.111C581.595,384.045,581.329,384.223,580.938,384.221z"/>
<path opacity="0.7" fill="#DD7CBA" enable-background="new    " d="M575.68,382.65c-0.396-0.004-0.658-0.18-0.658-0.449l0.039-8.969
	c0-0.266,0.264-0.447,0.652-0.447c0.395,0.006,0.658,0.182,0.655,0.453l-0.032,8.967C576.333,382.475,576.067,382.656,575.68,382.65
	z"/>
<path fill="#FFFFFF" d="M583.47,382.93c-6.135,0.023-8.71-2.658-11.759-5.697c-3.109-3.17-6.619-6.791-14.654-6.762l0.008,1.795
	c6.65-0.023,9.498,2.883,12.48,5.963c2.978,3.037,6.416,6.525,13.932,6.498L583.47,382.93L583.47,382.93z"/>
</svg>
