<?xml version="1.0" encoding="utf-8"?>
<!-- Generator: Adobe Illustrator 15.1.0, SVG Export Plug-In . SVG Version: 6.00 Build 0)  -->
<!DOCTYPE svg PUBLIC "-//W3C//DTD SVG 1.1//EN" "http://www.w3.org/Graphics/SVG/1.1/DTD/svg11.dtd">
<svg version="1.1" id="Layer_2" xmlns="http://www.w3.org/2000/svg" xmlns:xlink="http://www.w3.org/1999/xlink" x="0px" y="0px"
	 width="700px" height="500px" viewBox="0 0 700 500" enable-background="new 0 0 700 500" xml:space="preserve">
<g>
	<g opacity="0.75">
		<g>
			<path fill="#419928" d="M375.516,308.962c2.375-2.759,2.963-2.712,2.963-2.712c3.37,2.981,9.365,4.035,13.956,2.469
				c6.078-2.081,7.62-10.082,15.992-11.819c1.947-0.412-13.385-9.063-22.965-6.323c-6.995,2-9.113,8.197-9.361,10.108
				c-0.228,1.725,0.307,3.377,0.307,3.377c-2.291,1.97-3.005,3.207-3.005,3.207C372.756,308.062,374.714,309.89,375.516,308.962z
				 M378.758,303.215c7.408-6.548,19.532-7.373,19.532-7.373s-9.565,1.391-18.474,8.828
				C379.329,304.388,378.839,303.685,378.758,303.215z"/>
		</g>
	</g>
	<g id="g4213_2_" transform="matrix(1.3157811,0,0,1.3065705,-134.89456,960.51297)">
		<path id="path4179_2_" fill="none" stroke="#AA7552" stroke-width="4.3861" stroke-miterlimit="10" d="M388.271-487.594
			c0-3.796-0.84-7.391-2.456-10.521c-1.244-2.394-2.931-4.519-5.002-6.281"/>
	</g>
	<g id="g4213_3_" transform="matrix(1.3157811,0,0,1.3065705,-134.89456,960.51297)" opacity="0.7">
		<path id="path4179_3_" fill="#8F4C68" d="M399.548-494.814c-3.747-0.085-7.686,1.235-11.194,3.772
			c-0.153,0.105-0.359,0.105-0.51,0c-3.684-2.668-7.846-3.982-11.761-3.751c-1.758,0.105-3.468,0.513-5.06,1.214
			c-2.325,1.01-4.416,2.642-6.122,4.769c-1.713,2.129-3.033,4.757-3.866,7.688c-1.661,5.861-1.272,9.792,1.083,16.058
			c2.276,6.058,6.563,14.116,11.105,17.438c2.361,1.727,7.172,2.829,14.873,0.942c0.096-0.035-0.096-0.035,0,0
			c4.593,1.653,11.496,2.109,16.254-0.889c4.75-2.999,8.764-7.91,11.036-13.972c2.356-6.267,4.564-13.714,2.903-19.576
			c-0.833-2.931-2.154-5.559-3.868-7.688c-1.705-2.127-3.845-3.309-6.166-4.323C406.488-493.908,401.505-494.771,399.548-494.814z"
			/>
	</g>
</g>
<g>
	<path fill="none" stroke="#FFFFFF" stroke-width="8.832" stroke-miterlimit="10" d="M568.423,279.58l23.89-23.891
		c9.986,6.014,17.27,16.264,17.274,28.777c-19.085,0.006-34.545,15.479-34.549,34.561h-69.086l0.006,11.512h34.538
		c3.437,2.562,7.57,3.975,11.521,5.76l-0.01,17.262h-23.024l-23.031,23.029H644.13l-23.031-23.033l-4.139,0.004
		c15.524-3.363,27.168-17.986,27.168-34.535c0-10.525-4.796-19.812-12.225-26.164c0.432-2.744,0.701-5.529,0.701-8.393
		c0-18.855-8.971-35.596-23.027-46.052l11.52-11.51v-11.525l11.508-11.504l-11.508-11.519l-11.513,11.511l-11.521,0.008
		l-52.676,52.666L568.423,279.58z M598.072,319.027c0-6.369,5.143-11.523,11.51-11.523c6.359,0,11.52,5.154,11.52,11.523
		c0,6.342-5.157,11.512-11.52,11.512C603.215,330.539,598.067,325.365,598.072,319.027z"/>
	<g opacity="0.75">
		<g>
			<g>
				<path fill="#419928" d="M564.297,304.008c-7.252-1.117-7.794-2.168-7.794-2.168c1.481-8.947-3.14-20.303-10.712-26.453
					c-10.044-8.148-25.351-2.23-37.258-14.672c-2.781-2.879-1.155,32.537,13.747,45.949c10.903,9.801,23.739,6.789,27.252,5.184
					c3.21-1.461,5.441-4.129,5.441-4.129c5.826,1.797,8.691,1.691,8.691,1.691C565.705,309.67,566.733,304.371,564.297,304.008z
					 M551.014,304.604c-19.091-5.65-33.455-25.451-33.455-25.451s12.602,14.854,34.804,22.1
					C552.404,302.379,551.737,303.977,551.014,304.604z"/>
			</g>
		</g>
	</g>
</g>
<g>
	<path fill="#AA7552" d="M295.273,203.627h-2.697c-1.534,0.012-2.695,1.366-2.689,2.789v1.785c0.011,1.098,0.611,2.013,1.525,2.435
		l-1.13,14.914l7.421-0.016l-1.061-14.926c0.915-0.417,1.681-1.344,1.681-2.44v-1.778
		C298.302,204.962,296.698,203.627,295.273,203.627L295.273,203.627z"/>
	<path fill="none" stroke="#FFFFFF" stroke-width="2.8215" stroke-miterlimit="10" d="M311.174,163.086
		c-2.332-10.603-12.499-12.207-17.373-12.186c-6.03,0.017-15.724,1.384-17.327,14.009c-1.215,9.698,3.348,22.22,6.618,26.446
		c3.718,4.646,6.995,7.01,11.601,7.004c4.223-0.021,7.097-2.11,11.016-7.737C309.246,185.403,313.059,172.04,311.174,163.086z"/>
	<path fill="none" stroke="#FFFFFF" stroke-width="2.8215" stroke-miterlimit="10" d="M254.804,271.408
		c0,0,5.015,7.141,39.588,7.033c34.459-0.111,39.44-7.297,39.44-7.297c-0.049-9.027-1.373-57.488-7.027-58.981
		c-5.569-1.505-17.905-6.358-17.905-6.358s-4.978,26.307-10.963,26.333l-7.404,0.029c-5.397,0.022-9.795-23.487-11.231-26.1
		c0,0-12.295,4.854-17.866,6.388l-42.544,22.203l-38.278-32.073c-6.06,0.022-10.669,6.513-9.824,11.33l48.033,40.405l37.561-19.612
		L254.804,271.408z"/>
	<path fill="none" stroke="#AA7552" stroke-width="11.6725" stroke-miterlimit="10" d="M299.419,140.32v-16.681
		c0-15.529-12.711-28.243-28.238-28.243l0,0h-166.55c-15.538,0-28.244,12.714-28.244,28.243v118.568
		c0,15.535,12.706,28.227,28.244,28.227h122.917"/>
	<path fill="#FFFFFF" d="M173.173,169.338c-17.292,0.062-24.569-7.504-33.167-16.08c-8.783-8.943-18.678-19.16-41.356-19.071
		l0.015,5.059c18.787-0.066,26.813,8.133,35.22,16.836c8.408,8.568,18.112,18.398,39.302,18.327L173.173,169.338L173.173,169.338z"
		/>
	<path opacity="0.75" fill="#55BCBC" enable-background="new    " d="M104.388,172.129l-0.141-34.178c0-0.75,0.75-1.261,1.851-1.261
		c1.103,0,1.851,0.512,1.868,1.261l0.12,34.166c0,0.762-0.738,1.251-1.853,1.27C105.137,173.391,104.394,172.895,104.388,172.129z"
		/>
	<path fill="#42A829" d="M119.221,167.002l-0.089-25.292c0-0.768,0.747-1.264,1.85-1.279c1.092,0,1.852,0.506,1.852,1.255
		l0.101,25.306c0,0.765-0.74,1.26-1.851,1.266C119.977,168.283,119.24,167.769,119.221,167.002z"/>
	<path fill="#42A829" d="M163.887,170.647l-0.126-34.173c0-0.767,0.746-1.268,1.839-1.268c1.121-0.01,1.851,0.501,1.859,1.251
		l0.127,34.178c0,0.761-0.749,1.264-1.839,1.264C164.633,171.901,163.896,171.39,163.887,170.647z"/>
	<path opacity="0.75" fill="#55BCBC" enable-background="new    " d="M148.984,166.893l-0.091-25.305
		c0-0.755,0.742-1.268,1.841-1.268c1.113,0,1.862,0.502,1.862,1.263l0.089,25.293c0.008,0.767-0.741,1.263-1.841,1.269
		C149.744,168.155,148.992,167.664,148.984,166.893z"/>
	<path fill="#FFFFFF" d="M98.802,174.68l-0.03-5.055c18.788-0.077,26.751-8.331,35.103-17.105
		c8.324-8.63,17.954-18.538,39.165-18.62l0.019,5.07c-17.307,0.054-24.52,7.676-33.048,16.323
		C131.305,164.313,121.5,174.591,98.802,174.68z"/>
	<path fill="#FFFFFF" d="M173.206,174.409l-0.021-5.07c18.789-0.07,26.737-8.331,35.09-17.087
		c8.334-8.635,17.956-18.549,39.164-18.631l0.034,5.058c-17.317,0.077-24.528,7.698-33.048,16.333
		C205.708,164.021,195.902,174.315,173.206,174.409z"/>
	<path opacity="0.7" fill="#DD7CBA" enable-background="new    " d="M181.051,171.891c-1.116,0-1.844-0.501-1.844-1.257
		l0.129-34.184c0-0.744,0.732-1.255,1.862-1.249c1.092,0,1.839,0.505,1.831,1.267l-0.117,34.172
		C182.89,171.39,182.143,171.901,181.051,171.891z"/>
	<path opacity="0.75" fill="#55BCBC" enable-background="new    " d="M195.938,168.144c-1.103-0.006-1.85-0.502-1.85-1.269
		l0.102-25.293c0-0.761,0.76-1.263,1.85-1.263c1.115,0,1.859,0.513,1.859,1.268l-0.099,25.305
		C197.79,167.664,197.045,168.155,195.938,168.144z"/>
	<path fill="#42A829" d="M240.444,172.695c-1.106,0-1.854-0.502-1.854-1.255l0.127-34.184c0.017-0.744,0.751-1.257,1.861-1.257
		c1.111,0,1.85,0.513,1.85,1.274l-0.137,34.17C242.294,172.199,241.544,172.701,240.444,172.695z"/>
	<path opacity="0.7" fill="#DD7CBA" enable-background="new    " d="M225.605,168.265c-1.115-0.013-1.857-0.508-1.857-1.268
		l0.112-25.306c0-0.75,0.742-1.261,1.838-1.261c1.115,0.015,1.858,0.511,1.851,1.279l-0.092,25.298
		C227.447,167.769,226.698,168.283,225.605,168.265z"/>
	<path fill="#FFFFFF" d="M247.586,169.053c-17.31,0.064-24.575-7.5-33.179-16.076c-8.771-8.942-18.676-19.159-41.347-19.077
		l0.021,5.064c18.766-0.067,26.8,8.134,35.215,16.825c8.4,8.567,18.103,18.41,39.309,18.333L247.586,169.053L247.586,169.053z"/>
</g>
<line fill="none" stroke="#AA7552" stroke-width="10.774" stroke-miterlimit="10" x1="256.273" y1="386.586" x2="697.925" y2="386.586"/>
</svg>
