<?xml version="1.0" encoding="utf-8"?>
<!-- Generator: Adobe Illustrator 15.1.0, SVG Export Plug-In . SVG Version: 6.00 Build 0)  -->
<!DOCTYPE svg PUBLIC "-//W3C//DTD SVG 1.1//EN" "http://www.w3.org/Graphics/SVG/1.1/DTD/svg11.dtd">
<svg version="1.1" id="Layer_2" xmlns="http://www.w3.org/2000/svg" xmlns:xlink="http://www.w3.org/1999/xlink" x="0px" y="0px"
	 width="700px" height="500px" viewBox="0 0 700 500" enable-background="new 0 0 700 500" xml:space="preserve">
<path opacity="0.1804" enable-background="new    " d="M450.107,87.766c0,0-195.808,0-204.245,0s-7.824,13.023-7.824,13.023v204.225
	c0,0-0.612,13.513,7.824,13.513c8.436,0,193.405,0,203.342,0c8.99,0,8.131-13.513,8.131-13.513s0-193.235,0-205.227
	C457.337,87.766,450.107,87.766,450.107,87.766"/>
<polyline opacity="0.2078" enable-background="new    " points="246.843,99.761 246.843,292.309 575.896,292.309 246.843,292.309 
	246.843,236.429 246.843,224.001 246.843,99.761 "/>
<path opacity="0.1098" enable-background="new    " d="M447.692,315.008h-72.487v1.033v36.492
	c21.975,0.018,50.764,0.044,72.487,0.062V316.04V315.008"/>
<path opacity="0.1098" enable-background="new    " d="M343.835,352.512c-5.464,0-5.201,2.87-5.201,2.87s0,3.19,0,5.9
	c0,2.773,4.403,2.885,5.106,2.885h0.095c0,0,114.114-0.058,134.513-0.058c5.977,0,6.094-2.915,6.094-2.915s0-3.744,0-5.697
	c0-2.677-3.765-2.875-4.891-2.875c-0.197,0-0.312,0.006-0.312,0.006s-13.273-0.013-31.545-0.03
	c-21.726-0.021-50.515-0.047-72.487-0.062C359.805,352.521,347.749,352.512,343.835,352.512"/>
<path opacity="0.1098" enable-background="new    " d="M572.676,301.457c-1.348,0-2.533,0.716-3.188,1.791
	c-0.344,0.564-0.54,1.227-0.54,1.938c0,2.058,1.674,3.717,3.729,3.717c2.057,0,3.729-1.659,3.729-3.717
	c0-0.711-0.197-1.373-0.54-1.938C575.209,302.173,574.024,301.457,572.676,301.457"/>
<path opacity="0.1098" enable-background="new    " d="M325.466,244.954v-9.5h42.983v9.5H325.466 M484.457,229.349
	c-25.104,0-45.443-20.34-45.443-45.46c0-25.104,20.339-45.444,45.443-45.444c25.104,0,45.459,20.34,45.459,45.444
	C529.916,209.009,509.561,229.349,484.457,229.349 M577.896,254V129.761 M577.896,129.761H413.28l-20.224,16.814h24.683v14.934
	h-42.661l-11.424,9.5h12.021v14.92h-29.969l-13.888,11.54h82.542v6.104h-89.883l-5.727,4.75h95.609v6.104H311.406l-5.712,4.751
	h99.167v6.104H298.352L263.79,254"/>
<polyline opacity="0.1098" enable-background="new    " points="417.739,146.575 393.051,146.575 375.082,161.509 417.739,161.509 
	417.739,146.575 "/>
<polyline opacity="0.1098" enable-background="new    " points="375.675,171.009 363.65,171.009 345.699,185.93 375.675,185.93 
	375.675,171.009 "/>
<polyline opacity="0.1098" enable-background="new    " points="414.359,197.469 331.815,197.469 324.47,203.574 414.359,203.574 
	414.359,197.469 "/>
<polyline opacity="0.1098" enable-background="new    " points="414.359,208.323 318.755,208.323 311.41,214.428 414.359,214.428 
	414.359,208.323 "/>
<polyline opacity="0.1098" enable-background="new    " points="404.859,219.179 305.694,219.179 298.349,225.283 404.859,225.283 
	404.859,219.179 "/>
<polyline opacity="0.1098" enable-background="new    " points="348.804,274.531 293.393,274.531 293.393,279.486 348.804,279.486 
	348.804,274.531 "/>
<line opacity="0.1098" enable-background="new    " x1="440.586" y1="269.275" x2="440.586" y2="264.309"/>
<path opacity="0.1098" enable-background="new    " d="M484.457,138.445c-25.104,0-45.443,20.34-45.443,45.444
	c0,25.12,20.339,45.46,45.443,45.46c25.104,0,45.459-20.34,45.459-45.46C529.916,158.785,509.561,138.445,484.457,138.445"/>
<polyline opacity="0.1098" enable-background="new    " points="368.449,235.454 325.466,235.454 325.466,244.954 368.449,244.954 
	368.449,235.454 "/>
<polyline opacity="0.1098" enable-background="new    " points="261.795,224.001 246.843,224.001 246.843,236.429 261.795,224.001 
	"/>
<polyline opacity="0.1098" enable-background="new    " points="413.28,129.761 248.843,129.761 248.843,254.001 263.795,254.001 
	298.349,225.283 294.942,225.283 294.942,219.179 305.694,219.179 311.41,214.428 294.942,214.428 294.942,208.323 318.755,208.323 
	324.47,203.574 294.942,203.574 294.942,197.469 331.815,197.469 345.699,185.93 294.942,185.93 294.942,171.009 363.65,171.009 
	375.082,161.509 294.942,161.509 294.942,146.575 393.051,146.575 413.28,129.761 "/>
<polyline opacity="0.1098" enable-background="new    " points="393.051,146.575 294.942,146.575 294.942,161.509 375.082,161.509 
	393.051,146.575 "/>
<polyline opacity="0.1098" enable-background="new    " points="363.65,171.009 294.942,171.009 294.942,185.93 345.699,185.93 
	363.65,171.009 "/>
<polyline opacity="0.1098" enable-background="new    " points="329.815,187.469 292.942,187.469 292.942,193.574 322.47,193.574 
	329.815,187.469 "/>
<polyline opacity="0.1098" enable-background="new    " points="316.755,198.323 292.942,198.323 292.942,204.428 309.41,204.428 
	316.755,198.323 "/>
<polyline opacity="0.1098" enable-background="new    " points="303.694,209.179 292.942,209.179 292.942,215.283 296.349,215.283 
	303.694,209.179 "/>
<g opacity="0.9">
	<path fill="#123035" d="M599.263,89.298v209.826H260.91V89.298H599.263 M599.263,76.515H260.91
		c-7.061,0-12.784,5.723-12.784,12.783v209.826c0,7.062,5.724,12.784,12.784,12.784h338.353c7.062,0,12.783-5.725,12.783-12.784
		V89.298C612.046,82.238,606.323,76.515,599.263,76.515z"/>
</g>
<rect x="394.475" y="310.875" fill="#123035" width="72.481" height="45.388"/>
<path fill="#123035" d="M357.895,351.253c0,0-0.256-2.866,5.205-2.866c14.195,0,135.403,0.112,135.403,0.112
	s5.198-0.272,5.198,2.874c0,1.952,0,5.699,0,5.699s-0.123,2.915-6.086,2.915c-20.403,0-134.518,0.049-134.518,0.049
	s-5.205,0.129-5.205-2.878C357.895,354.439,357.895,351.253,357.895,351.253z"/>
<path fill="#DC4951" d="M595.664,301.055c0,2.057-1.666,3.723-3.723,3.723c-2.062,0-3.73-1.666-3.73-3.723
	c0-2.059,1.67-3.729,3.73-3.729C593.998,297.325,595.664,298.996,595.664,301.055z"/>
<rect x="260.91" y="88.629" fill="#FFFFFF" width="338.353" height="209.679"/>
<rect x="314.206" y="142.453" fill="#999999" width="122.803" height="14.926"/>
<rect x="314.206" y="166.877" fill="#999999" width="80.737" height="14.928"/>
<rect x="314.206" y="193.337" fill="#999999" width="119.409" height="6.107"/>
<rect x="314.206" y="204.194" fill="#999999" width="119.409" height="6.105"/>
<rect x="314.206" y="215.049" fill="#999999" width="109.909" height="6.106"/>
<polyline fill="#FFFFFF" points="368.07,270.396 368.07,275.361 312.658,275.361 312.658,270.396 "/>
<circle fill="#999999" cx="503.726" cy="179.769" r="45.458"/>
<rect x="344.736" y="231.333" opacity="0.7" fill="#1995A5" enable-background="new    " width="42.971" height="9.498"/>
<circle fill="#FFFFFF" cx="339.796" cy="255.144" r="9.273"/>
<rect x="421.348" y="255.759" fill="#FFFFFF" width="18.658" height="18.658"/>
<polygon opacity="0.23" fill="#FFFFFF" enable-background="new    " points="268.104,125.629 268.104,262.296 432.545,125.629 "/>
<path opacity="0.1804" enable-background="new    " d="M308.108,250.766c0,0-195.808,0-204.245,0s-7.824,7.974-7.824,7.974V383.78
	c0,0-0.612,8.273,7.824,8.273c8.436,0,193.405,0,203.342,0c8.99,0,8.131-8.273,8.131-8.273s0-118.312,0-125.654
	C315.337,250.766,308.108,250.766,308.108,250.766"/>
<path fill="#123035" d="M105.742,375.458V250.417c0,0-0.604-7.968,7.832-7.968c8.436,0,204.242,0,204.242,0s7.23,0,7.23,7.351
	c0,7.356,0,125.658,0,125.658s0.856,8.276-8.135,8.276c-9.941,0-194.902,0-203.338,0
	C105.138,383.734,105.742,375.458,105.742,375.458z"/>
<rect x="118.127" y="252.76" fill="#FFFFFF" width="187.856" height="120.854"/>
<path fill="#E6E6E6" d="M306.679,252.064v122.241H117.435V252.064H306.679 M305.292,253.451H118.821v119.47h186.471V253.451z"/>
<path fill="#B3B3B3" d="M318.116,325.633c0,1.532-1.24,2.771-2.772,2.771c-1.532,0-2.771-1.239-2.771-2.771v-25.88
	c0-1.532,1.24-2.771,2.771-2.771c1.532,0,2.772,1.238,2.772,2.771V325.633z"/>
<rect x="145.417" y="285.305" fill="#999999" width="55.848" height="6.609"/>
<rect x="145.417" y="297.055" fill="#999999" width="46.854" height="6.613"/>
<rect x="145.417" y="310.806" fill="#999999" width="55.848" height="3.564"/>
<rect x="145.417" y="317.143" fill="#999999" width="46.854" height="3.565"/>
<path fill="#999999" d="M287.923,315.624c0,19.335-15.679,35.012-35.015,35.012c-19.336,0-35.014-15.677-35.014-35.012
	c0-19.342,15.677-35.015,35.014-35.015C272.244,280.609,287.923,296.282,287.923,315.624z"/>
<rect x="145.417" y="336.166" opacity="0.7" fill="#1995A5" enable-background="new    " width="47.329" height="7.999"/>
<rect x="117.435" y="252.064" opacity="0.7" fill="#1995A5" enable-background="new    " width="189.244" height="16.42"/>
<polygon fill="#24AFB2" points="215.992,360.46 210.691,365.763 205.39,360.46 204.364,361.484 210.691,367.814 217.018,361.484 "/>
<polygon opacity="0.23" fill="#FFFFFF" enable-background="new    " points="117.435,252.064 117.435,308.808 210.284,252.064 "/>
<g>
	<path opacity="0.1804" enable-background="new    " d="M350.918,285.438l-0.189,0.006H282.32l-0.196-0.006
		c-0.869,0-4.32,0.301-4.32,5.076c0,5.448,0,125.146,0,131.569c0,4.883,3.188,5.273,4.206,5.273c0.195,0,0.31-0.016,0.31-0.016
		s64.723,0,68.745,0s4.021-4.677,4.021-4.677s0-126.704,0-132.15C355.084,285.739,351.756,285.438,350.918,285.438"/>
	<path fill="#123035" d="M291.233,273.568h68.406c0,0,4.356-0.393,4.356,5.07c0,5.45,0,132.15,0,132.15s0,4.677-4.022,4.677
		c-4.021,0-68.74,0-68.74,0s-4.526,0.558-4.526-5.264c0-6.433,0-126.113,0-131.563C286.707,273.178,291.233,273.568,291.233,273.568
		z"/>
	<rect x="291.865" y="283.792" fill="#FFFFFF" width="66.867" height="117.292"/>
	<path fill="#4D4D4D" d="M328.575,279.068c0,1.574-1.276,2.857-2.854,2.857c-1.581,0-2.858-1.283-2.858-2.857
		c0-1.577,1.277-2.86,2.858-2.86C327.299,276.208,328.575,277.491,328.575,279.068z"/>
	<path fill="#F2F2F2" d="M324.816,279.068c0-0.498,0.403-0.904,0.904-0.904c0.498,0,0.901,0.406,0.901,0.904
		c0,0.496-0.403,0.899-0.901,0.899C325.22,279.971,324.816,279.564,324.816,279.068z"/>
	<path fill="#B3B3B3" d="M330.232,407.977c0,2.502-2.03,4.532-4.533,4.532c-2.505,0-4.537-2.03-4.537-4.532
		c0-2.506,2.032-4.533,4.537-4.533C328.202,403.441,330.232,405.471,330.232,407.977z"/>
	<rect x="298.997" y="364.997" fill="#999999" width="47.693" height="6.386"/>
	<rect x="298.997" y="376.351" fill="#999999" width="40.014" height="6.392"/>
	<path fill="#999999" d="M352.85,329.96c0,14.868-12.056,26.928-26.927,26.928s-26.926-12.06-26.926-26.928
		c0-14.874,12.055-26.927,26.926-26.927S352.85,315.086,352.85,329.96z"/>
	<rect x="298.586" y="388.94" opacity="0.7" fill="#1995A5" enable-background="new    " width="50.807" height="7.23"/>
	<rect x="291.865" y="283.792" opacity="0.7" fill="#1995A5" enable-background="new    " width="66.867" height="12.926"/>
	<polyline fill="#FFFFFF" points="294.899,287.012 305.506,287.012 305.506,285.963 294.899,285.963 	"/>
	<polyline fill="#FFFFFF" points="294.899,293.462 305.506,293.462 305.506,292.413 294.899,292.413 	"/>
	<polyline fill="#FFFFFF" points="294.899,290.139 305.506,290.139 305.506,289.089 294.899,289.089 	"/>
	<polygon opacity="0.23" fill="#FFFFFF" enable-background="new    " points="291.865,283.792 358.732,283.792 291.865,352.308 	"/>
</g>
<rect x="260.384" y="88.629" opacity="0.7" fill="#1995A5" enable-background="new    " width="338.878" height="20.792"/>
<polygon opacity="0.23" fill="#FFFFFF" enable-background="new    " points="261.254,88.938 261.254,115.191 354.104,88.938 "/>
<polygon opacity="0.23" fill="#FFFFFF" enable-background="new    " points="262.224,290.394 262.224,316.646 355.073,290.394 "/>
</svg>
